<svg xmlns="http://www.w3.org/2000/svg" width="631" height="646" viewBox="0 0 631 646" version="1.1"><path d="M 0 323.002 L 0 646.003 315.750 645.752 L 631.500 645.500 631.752 322.750 L 632.003 0 316.002 0 L 0 0 0 323.002 M 0.494 323.500 C 0.494 501.150, 0.609 573.676, 0.750 484.669 C 0.891 395.662, 0.891 250.312, 0.750 161.669 C 0.609 73.026, 0.494 145.850, 0.494 323.500 M 103 94.930 C 92.023 98.303, 83.384 107.435, 80.492 118.726 C 79.151 123.957, 79.003 148.586, 79.236 326.580 L 79.500 528.500 82.279 534.160 C 85.922 541.577, 91.349 547.043, 98.612 550.609 L 104.500 553.500 309.552 553.500 L 514.604 553.500 521.352 550.075 C 528.854 546.267, 532.665 542.466, 536.752 534.713 L 539.500 529.500 539.500 324 L 539.500 118.500 536.906 113 C 533.770 106.353, 527.548 99.942, 521.195 96.813 L 516.500 94.500 311 94.331 C 197.975 94.238, 104.375 94.508, 103 94.930 M 269.239 126.653 C 255.751 133.302, 254.622 149.984, 265.876 176.332 C 273.502 194.185, 276.989 210.622, 276.996 228.750 C 276.998 234.387, 277.405 239, 277.900 239 C 279.866 239, 281.265 228.626, 280.718 218.104 C 280.058 205.420, 276.861 192.321, 270.609 176.691 C 265.206 163.181, 264.011 158.891, 264.011 153 C 264.011 146.151, 265.746 141.320, 269.586 137.481 C 272.479 134.588, 273.791 134, 277.359 134 C 284.553 134, 289.575 141.472, 283.501 143.138 C 279.838 144.142, 278 146.484, 278 150.144 C 278 157.580, 283.331 161.362, 290.379 158.925 C 295.793 157.053, 298.329 152.460, 297.614 145.818 C 296.022 131.019, 280.986 120.863, 269.239 126.653 M 322.500 128.101 C 313.581 132.837, 309.060 139.719, 309.022 148.615 C 308.995 155.004, 311.502 158.519, 317.175 160.047 C 324.262 161.956, 330 158.032, 330 151.277 C 330 147.338, 327.019 144, 323.500 144 C 318.242 144, 322.254 135.799, 328.081 134.634 C 332.752 133.700, 339.149 136.891, 342.090 141.623 C 344.159 144.951, 344.493 146.703, 344.448 154 C 344.399 162.123, 344.122 163.151, 338.199 177.165 C 330.424 195.564, 326.770 210.089, 326.667 223 C 326.596 231.933, 328.149 240, 329.940 240 C 330.371 240, 330.986 233.588, 331.305 225.750 C 331.999 208.724, 334.278 197.918, 340.045 184.313 C 349.367 162.318, 351.104 156.287, 350.789 147 C 350.467 137.527, 348.946 134.348, 342.310 129.287 C 337.427 125.563, 328.307 125.017, 322.500 128.101 M 270.808 139.750 C 265.085 145.882, 264.830 153.981, 269.924 167.790 C 271.488 172.030, 274.385 179.875, 276.360 185.222 C 278.335 190.569, 280.709 199.088, 281.636 204.154 C 284.153 217.911, 285.251 212.544, 284.737 189 C 284.289 168.485, 283.558 164.488, 279.428 160 C 274.058 154.164, 273.937 146.913, 279.138 142.538 C 281.662 140.414, 281.989 139.692, 280.981 138.477 C 278.925 136, 273.697 136.654, 270.808 139.750 M 234.459 139.840 C 227.270 143.176, 223.019 150.290, 223.006 159.007 C 222.996 165.163, 224.742 169.021, 229.392 173.114 C 244.196 186.145, 253.553 204.469, 254.705 222.684 C 255.952 242.402, 248.879 260.385, 232.754 278.492 L 227.500 284.391 232.623 281.606 C 243.287 275.808, 252.834 263.220, 257.733 248.500 C 260.160 241.208, 260.400 239.084, 260.443 224.500 C 260.500 205.408, 259.217 199.372, 251.938 184.500 C 246.263 172.906, 245.890 172.402, 240.269 168.747 C 235.901 165.908, 234.159 162.378, 235.583 159.252 C 236.250 157.786, 236.440 157.929, 236.745 160.127 C 237.317 164.257, 241.424 167.455, 246.154 167.455 C 249.563 167.455, 250.746 166.854, 253.712 163.617 C 256.995 160.034, 257.200 159.425, 256.788 154.462 C 255.841 143.033, 244.119 135.357, 234.459 139.840 M 326.617 139.291 C 324.967 140.498, 325.008 140.667, 327.256 141.869 C 333.749 145.344, 334.468 153.346, 328.908 160.264 C 324.626 165.592, 323.033 171.455, 322.322 184.500 C 321.681 196.262, 322.685 215, 323.956 215 C 324.379 215, 325.005 212.637, 325.347 209.750 C 326.356 201.234, 328.721 193.387, 334.916 178 C 341.948 160.538, 343.556 153.780, 342.031 148.113 C 340.340 141.834, 336.576 138, 332.102 138 C 330.056 138, 327.588 138.581, 326.617 139.291 M 365.137 140.319 C 356.714 143.493, 351.112 151.451, 352.413 158.390 C 353.135 162.235, 357.459 166.705, 361.575 167.860 C 367.624 169.557, 373.989 165.840, 374.015 160.595 C 374.027 158.229, 374.259 157.853, 375 159 C 376.893 161.930, 376.036 164.775, 372.393 167.652 C 361.803 176.014, 355.362 186.425, 350.834 202.500 C 347.855 213.076, 347.558 235.023, 350.260 245 C 354.355 260.120, 364.114 274.128, 375.133 280.701 C 382.970 285.376, 385.230 285.824, 380.834 281.830 C 370.516 272.457, 361.800 259.293, 357.376 246.399 C 355.102 239.773, 354.665 236.808, 354.665 228 C 354.665 211.292, 359.764 198.568, 372.315 183.952 C 375.835 179.853, 380.575 175.150, 382.848 173.500 C 387.403 170.194, 388.985 166.452, 388.994 158.962 C 389.010 146.294, 376.084 136.193, 365.137 140.319 M 174.618 161.112 C 163.299 163.770, 150.895 174.319, 147.071 184.541 C 141.629 199.085, 147.136 210.563, 161.233 214.056 C 167.206 215.536, 172.087 214.639, 176.006 211.341 C 180.296 207.732, 182 203.931, 182 197.973 C 182 193.640, 181.547 192.394, 179.077 189.923 C 177.359 188.205, 175.092 187, 173.577 187 C 170.277 187, 167 190.268, 167 193.559 C 167 195.010, 166.567 195.851, 166 195.500 C 163.938 194.226, 164.950 188.955, 167.750 186.382 C 171.737 182.718, 171.588 182.873, 175.518 178.308 C 184.676 167.673, 203.657 167.886, 219.700 178.805 C 236.375 190.154, 248.975 211.331, 248.972 228 C 248.968 244.312, 240.992 261.502, 226.117 277.257 C 217.852 286.012, 220.750 285.251, 229.667 276.326 C 238.719 267.264, 244.107 259.550, 248.353 249.571 C 251 243.350, 251.414 241.054, 251.794 230.467 C 252.117 221.496, 251.814 216.789, 250.603 211.967 C 247.078 197.927, 237.484 183.443, 226 174.825 C 219.636 170.049, 204.627 162.754, 197.807 161.123 C 192.325 159.811, 180.183 159.806, 174.618 161.112 M 414.500 162.428 C 395.317 167.255, 377.562 179.416, 367.337 194.732 C 354.765 213.563, 354.132 238.278, 365.718 257.908 C 369.670 264.603, 381.991 278.449, 387.371 282.241 C 390.117 284.177, 389.950 283.808, 386 279.223 C 374.205 265.532, 371.564 261.871, 367.437 253.500 C 357.718 233.786, 359.257 217.006, 372.485 198.469 C 384.977 180.963, 406.220 169.588, 423.123 171.355 C 431.657 172.247, 434.625 173.841, 443.253 182.167 C 449.663 188.352, 451 190.180, 451 192.762 C 451 194.478, 450.550 196.160, 450 196.500 C 449.418 196.860, 449 195.863, 449 194.116 C 449 187.867, 440.946 185.900, 435.923 190.923 C 433.526 193.320, 433 194.687, 433 198.522 C 433 214.630, 451.395 221.326, 465.691 210.422 C 476.175 202.426, 475.132 187.538, 463.192 174.774 C 454.268 165.234, 443.457 160.948, 428.661 161.085 C 423.622 161.132, 417.250 161.736, 414.500 162.428 M 286.298 163.794 C 285.372 164.384, 285.455 166.611, 286.662 173.529 C 289.769 191.328, 287.343 221.403, 281.024 243.434 C 279.931 247.248, 279.220 250.553, 279.446 250.779 C 279.671 251.004, 281.090 249.234, 282.599 246.844 C 292.268 231.532, 297.350 204.427, 295.115 180.096 C 293.610 163.717, 293.400 162.996, 290.133 163.015 C 288.685 163.024, 286.959 163.374, 286.298 163.794 M 314.082 164.882 C 312.691 167.537, 311 182.673, 311.006 192.409 C 311.014 204.687, 313.325 219.191, 317.041 230.283 C 320.151 239.566, 324.784 248.746, 327.492 250.993 C 328.780 252.062, 328.773 251.593, 327.441 247.360 C 324.562 238.213, 321.076 221.674, 319.901 211.585 C 318.534 199.856, 319.267 179.296, 321.359 170.675 C 322.870 164.446, 322.926 164.553, 317.715 163.713 C 315.825 163.408, 314.657 163.784, 314.082 164.882 M 250.166 170.062 C 248.883 170.577, 247.987 171.336, 248.175 171.749 C 248.364 172.162, 250.373 176.100, 252.640 180.500 C 261.531 197.755, 265.372 217.403, 263.136 234.197 C 258.197 271.291, 237.779 289.931, 191 300.053 C 185.225 301.302, 180.073 302.701, 179.550 303.162 C 177.634 304.852, 198.213 303.994, 208.145 301.970 C 237.012 296.088, 256.855 282.672, 266.492 262.522 C 272.668 249.610, 273.511 245.167, 273.429 226 C 273.370 212.337, 272.984 208.124, 271.185 201.500 C 268.499 191.613, 262.334 178.893, 257.491 173.250 C 253.547 168.654, 253.611 168.682, 250.166 170.062 M 350.766 175.723 C 344.866 182.820, 339.673 193.208, 336.851 203.558 C 333.949 214.199, 333.639 238.136, 336.274 248 C 338.771 257.347, 345.241 269.939, 350.620 275.923 C 365.614 292.599, 392.728 303.442, 422.500 304.668 C 439.705 305.376, 439.462 304.249, 421.613 300.551 C 404.031 296.908, 394.282 293.702, 382.575 287.713 C 360.905 276.626, 349.127 259.699, 345.825 234.900 C 343.595 218.151, 348.193 196.887, 357.623 180.339 C 360.030 176.115, 362 172.338, 362 171.946 C 362 171.250, 358.493 170.027, 356.500 170.028 C 355.950 170.028, 353.370 172.591, 350.766 175.723 M 186.885 174.380 C 182.342 176.003, 177.313 179.546, 175.958 182.079 C 175.092 183.696, 175.325 184.173, 177.359 184.946 C 178.700 185.456, 180.525 186.912, 181.414 188.181 L 183.031 190.489 188.265 187.494 C 193.018 184.776, 194.329 184.501, 202.500 184.507 C 210.039 184.513, 212.231 184.900, 216 186.892 C 226.789 192.591, 235.121 202.392, 239.882 214.985 C 241.939 220.425, 242.342 223.233, 242.322 232 C 242.299 241.664, 241.519 245.980, 238.450 253.414 C 237.927 254.681, 238.021 255.105, 238.727 254.669 C 239.314 254.306, 241.078 250.520, 242.647 246.255 C 245.108 239.565, 245.490 237.126, 245.429 228.500 C 245.366 219.708, 244.974 217.534, 242.181 210.500 C 232.438 185.961, 204.869 167.953, 186.885 174.380 M 409 175.435 C 393.401 179.791, 376.495 193.806, 369.678 208.035 C 362.752 222.490, 362.449 236.949, 368.792 250.250 C 372.657 258.353, 375.852 262.501, 372.840 255.505 C 363.358 233.481, 367.934 211.069, 385.070 195.597 C 388.056 192.901, 392.975 189.526, 396 188.097 C 400.722 185.868, 402.844 185.501, 411 185.505 C 419.460 185.509, 421.082 185.815, 425.813 188.303 L 431.125 191.097 434.597 188.049 C 436.507 186.372, 438.813 185, 439.722 185 C 442.503 185, 436.130 179.045, 430.500 176.383 C 424.820 173.698, 416.530 173.333, 409 175.435 M 195.826 187.979 C 194.356 188.423, 191.318 189.817, 189.076 191.077 C 185.321 193.188, 185 193.698, 185 197.559 C 185 199.864, 184.710 203.269, 184.356 205.125 L 183.712 208.500 186.106 206.343 C 193.852 199.362, 204.572 197.826, 214.340 202.298 C 228.673 208.860, 237.498 226.533, 234.854 243.382 C 233.736 250.509, 234.406 251.660, 236.613 246.404 C 241.456 234.866, 240.719 222.929, 234.366 210.048 C 226.109 193.305, 209.565 183.832, 195.826 187.979 M 397.500 190.790 C 388.017 195.362, 380.725 202.732, 375.748 212.775 C 371.599 221.145, 371.500 221.578, 371.500 231.422 C 371.500 239.887, 371.880 242.340, 373.873 246.750 C 375.178 249.637, 376.667 252, 377.182 252 C 377.697 252, 377.884 251.621, 377.598 251.158 C 377.311 250.695, 376.657 247.657, 376.143 244.408 C 373.030 224.734, 385.741 205.204, 404.377 201.028 C 411.271 199.483, 418.130 200.706, 424.679 204.650 C 427.770 206.511, 430.388 207.914, 430.497 207.767 C 430.606 207.620, 430.487 204.470, 430.232 200.767 L 429.769 194.034 424.135 191.270 C 419.821 189.153, 416.741 188.434, 411 188.201 C 404.421 187.935, 402.764 188.253, 397.500 190.790 M 192.946 205.750 L 187.500 208.500 194.516 209.047 C 203.649 209.760, 209.354 212.594, 216.287 219.862 C 226.179 230.233, 228.321 244.433, 222.415 260.500 C 220.679 265.223, 226.890 257.642, 229.649 251.670 C 232.090 246.387, 232.497 244.269, 232.479 236.937 C 232.461 229.326, 232.098 227.642, 229.220 221.795 C 221.032 205.163, 206.681 198.815, 192.946 205.750 M 405 203.918 C 395.426 205.917, 386.562 213.483, 381.651 223.849 C 377.447 232.722, 377.257 242.638, 381.132 251 C 383.621 256.372, 388.834 263.499, 389.666 262.667 C 389.896 262.437, 389.277 260.281, 388.292 257.875 C 385.881 251.989, 385.903 239.312, 388.335 232.280 C 390.575 225.803, 396.964 218.592, 404.444 214.095 C 409.354 211.144, 411.266 210.611, 418.804 210.095 L 427.500 209.500 421.996 206.879 C 415.657 203.861, 409.997 202.875, 405 203.918 M 185.821 212.357 C 176.313 214.994, 170.986 221.577, 171.016 230.651 C 171.049 240.279, 177.561 246.995, 186.868 246.998 C 190.609 247, 191.792 246.443, 195.118 243.118 C 198.580 239.655, 199 238.701, 199 234.292 C 199 230.418, 198.499 228.878, 196.686 227.174 C 193.081 223.788, 189 224.895, 189 229.259 C 189 230.281, 188.550 230.840, 188 230.500 C 185.965 229.242, 186.914 224.103, 189.493 222.413 C 192.859 220.207, 196.266 221.210, 200.960 225.788 C 203.053 227.830, 206.281 230.400, 208.133 231.500 C 210.240 232.752, 212.553 235.558, 214.314 239 C 216.901 244.055, 217.103 245.248, 216.814 253.751 C 216.641 258.839, 216.805 263.001, 217.178 263.001 C 218.951 262.999, 222.140 251.170, 222.158 244.527 C 222.216 223.546, 203.910 207.339, 185.821 212.357 M 413.500 213.336 C 407.140 215.447, 403.795 217.533, 399.334 222.170 C 389.722 232.161, 387.271 243.306, 391.638 257.173 C 394.371 265.850, 395.580 264.927, 395.538 254.197 C 395.506 246.129, 395.862 243.828, 397.653 240.500 C 400.165 235.831, 403.162 232.911, 407.903 230.512 C 409.774 229.566, 412.389 227.503, 413.713 225.929 C 416.451 222.676, 421.744 221.258, 424.883 222.937 C 427.586 224.384, 428.644 228.519, 426.862 230.669 C 425.640 232.144, 425.448 232.015, 424.994 229.406 C 423.989 223.644, 416.853 225.421, 414.906 231.919 C 413.910 235.243, 414.014 236.359, 415.621 239.639 C 420.718 250.041, 435.099 250.691, 442.115 240.838 C 445.491 236.098, 445.801 227.722, 442.791 222.604 C 438.075 214.586, 423.566 209.995, 413.500 213.336 M 202.965 234.750 C 202.945 236.262, 202.313 238.614, 201.559 239.975 C 200.357 242.146, 200.427 242.916, 202.130 246.255 C 207.542 256.864, 205.738 269.585, 197.237 280.750 C 193.364 285.837, 196.079 284.566, 202.328 278.368 C 216.080 264.725, 218.750 246.300, 208.544 235.478 C 204.589 231.285, 203.012 231.079, 202.965 234.750 M 404.743 236.204 C 399.280 241.668, 397.561 246.783, 398.255 255.519 C 399.055 265.596, 407.107 278.153, 416.166 283.450 L 419.500 285.399 416.596 281.950 C 408.082 271.839, 405.666 258.884, 410.527 249.419 C 413.021 244.563, 413.033 244.430, 411.440 239 C 410.553 235.975, 409.723 233.069, 409.595 232.543 C 409.467 232.016, 407.284 233.664, 404.743 236.204 M 150.750 238.689 C 148.102 239.381, 148.655 241, 151.540 241 C 161.808 241, 170.963 255.147, 168.087 266.570 C 165.471 276.957, 160.474 281.449, 138.615 293.061 C 126.249 299.630, 115 307.707, 115 310.016 C 115 310.473, 118.037 309.101, 121.750 306.967 C 125.596 304.756, 133.232 301.744, 139.500 299.966 C 166.837 292.209, 180.697 275.580, 176.033 256.136 C 173.137 244.066, 161.336 235.923, 150.750 238.689 M 451.936 241.750 C 445.105 245.214, 440.534 251.111, 439.018 258.414 C 436.980 268.232, 440.151 277.154, 448.652 285.521 C 455.718 292.474, 465.422 297.384, 479.147 300.950 C 485.391 302.572, 493.538 305.486, 497.250 307.424 C 500.962 309.363, 504 310.549, 504 310.060 C 504 307.841, 492.261 300.238, 476.687 292.371 C 457.026 282.439, 451.426 277.810, 448.532 269.095 C 444.854 258.023, 450.925 245.709, 461.465 242.862 C 468.610 240.931, 468.712 240.873, 466.500 239.963 C 462.606 238.362, 457.344 239.007, 451.936 241.750 M 144.077 245.589 C 141.424 247.821, 141 248.843, 141 253 C 141 257.157, 141.424 258.179, 144.077 260.411 C 147.312 263.133, 150.845 263.688, 154.043 261.977 C 159.783 258.905, 157.742 251.059, 151.191 251.015 C 149.909 251.007, 149.157 250.555, 149.500 250 C 151.765 246.334, 160 251.869, 160 257.057 C 160 260.101, 155.137 265, 152.116 265 C 151.052 265, 149.693 266.569, 148.590 269.068 C 146.493 273.821, 141.414 277.821, 131.372 282.628 C 122.288 286.976, 118.942 291.428, 116.534 302.370 L 115.902 305.240 120.132 301.619 C 122.458 299.628, 131.016 294.590, 139.150 290.423 C 156.038 281.772, 162.639 275.933, 164.979 267.575 C 167.632 258.099, 163.995 248.264, 156.595 244.904 C 150.990 242.358, 147.703 242.538, 144.077 245.589 M 460.500 245.412 C 451.533 249.397, 447.539 261.285, 452.042 270.587 C 455.710 278.164, 462.688 283.493, 479.357 291.447 C 487.756 295.455, 496.234 300.144, 498.196 301.867 C 500.158 303.590, 502.092 305, 502.493 305 C 503.625 305, 502.039 297.994, 500.014 294.047 C 497.376 288.903, 494.480 286.601, 485.549 282.543 C 475.608 278.026, 471.518 274.936, 469.031 270.061 C 467.722 267.495, 466.162 266.009, 464.290 265.544 C 457.415 263.838, 454.987 257.451, 459.306 252.431 C 461.805 249.525, 466.295 248.824, 468.325 251.022 C 469.250 252.024, 469.125 252.162, 467.738 251.674 C 465.034 250.722, 461.273 252.926, 459.886 256.275 C 458.725 259.078, 458.839 259.464, 461.499 261.753 C 463.857 263.781, 465.078 264.119, 468.429 263.669 C 473.824 262.946, 477 259.313, 477 253.867 C 477 245.833, 468.896 241.680, 460.500 245.412 M 193.500 248.382 L 189.500 250.479 189.500 260.990 C 189.500 271.062, 189.357 271.763, 186.073 277.820 C 183.915 281.800, 180.061 286.533, 175.662 290.606 C 170.364 295.512, 169.374 296.808, 171.561 295.977 C 185.102 290.828, 197.243 280.299, 200.937 270.500 C 203.547 263.577, 203.407 254.622, 200.606 249.205 C 198.718 245.555, 198.860 245.571, 193.500 248.382 M 413.083 250.103 C 409.058 256.722, 409.658 267.302, 414.531 275.634 C 418.049 281.650, 425.617 288.007, 434.963 292.799 C 445.166 298.031, 447.667 298.177, 441.340 293.171 C 429.813 284.052, 424.500 274.691, 424.500 263.500 C 424.500 259.650, 424.846 255.262, 425.269 253.750 C 425.826 251.760, 425.677 251, 424.730 251 C 424.011 251, 421.658 250.100, 419.500 249 C 417.342 247.900, 415.441 247, 415.274 247 C 415.107 247, 414.121 248.397, 413.083 250.103 M 177.445 250.137 C 177.851 251.436, 178.419 256.377, 178.708 261.117 C 179.184 268.941, 178.985 270.283, 176.547 275.716 C 173.172 283.237, 164.743 291.742, 155.991 296.457 C 148.845 300.308, 149.706 300.984, 158.191 298.185 C 178.265 291.563, 190.303 274.419, 187.024 257.127 C 185.798 250.662, 185.413 250, 182.875 250 C 181.772 250, 179.932 249.499, 178.788 248.887 C 176.892 247.872, 176.773 247.983, 177.445 250.137 M 433.500 250.504 C 430.135 251.481, 429.288 252.288, 428.162 255.583 C 426.212 261.291, 427.204 270.853, 430.430 277.445 C 433.616 283.957, 441.861 291.806, 449.381 295.486 C 454.667 298.072, 465.050 301.283, 465.777 300.556 C 465.981 300.353, 462.870 298.464, 458.865 296.360 C 450.436 291.931, 442.157 284.010, 438.849 277.212 C 436.073 271.507, 435.220 260.859, 437.022 254.420 C 437.712 251.958, 438.101 249.807, 437.888 249.642 C 437.675 249.477, 435.700 249.865, 433.500 250.504 M 225.455 301.455 C 224.105 302.805, 223 304.379, 223 304.953 C 223 305.528, 224.800 307.852, 227 310.119 C 229.357 312.549, 231 315.204, 231 316.586 C 231 319.839, 225.628 325.638, 221.288 327.070 C 215.278 329.054, 203.053 327.589, 187.500 323.021 C 168.145 317.337, 161.135 316.356, 150.246 317.805 C 140.103 319.156, 128.231 322.910, 122.500 326.579 C 118.138 329.371, 118.565 329.350, 129.500 326.233 C 133.911 324.975, 139.340 324.521, 150 324.516 C 165.811 324.509, 171.294 325.463, 190.014 331.480 C 210.021 337.911, 220.082 338.338, 230.155 333.184 C 233.039 331.708, 236.759 328.787, 238.420 326.694 C 240.976 323.473, 241.492 321.857, 241.774 316.194 C 242.158 308.461, 240.260 304.349, 234.759 300.995 C 230.474 298.382, 228.426 298.483, 225.455 301.455 M 377.500 300.959 C 374.695 302.127, 370.327 306.972, 369.064 310.315 C 365.299 320.280, 373.457 332.852, 385.693 335.941 C 393.328 337.869, 406.645 337.233, 416.500 334.470 C 448.455 325.510, 448.171 325.560, 467 325.529 C 483.916 325.501, 487.675 325.975, 498.500 329.502 C 499.600 329.860, 498.700 328.986, 496.500 327.560 C 490.928 323.949, 478.472 320.285, 466.822 318.831 C 454.802 317.331, 446.161 318.372, 427.952 323.514 C 411.682 328.108, 404.117 329.363, 396.428 328.746 C 389.187 328.165, 383.736 325.324, 381.476 320.953 C 379.348 316.838, 379.524 316.284, 384.500 311.448 C 386.975 309.043, 389 306.669, 389 306.172 C 389 305.676, 388.067 304.084, 386.927 302.635 C 384.788 299.915, 381.438 299.320, 377.500 300.959 M 210.500 305.135 C 208.850 305.665, 194.900 306.512, 179.500 307.018 C 146.944 308.087, 139.078 309.274, 127.403 314.876 C 119.804 318.522, 108.939 327.272, 110.309 328.642 C 110.585 328.918, 113.441 327.380, 116.656 325.224 C 132.958 314.289, 150.484 311.309, 183.500 313.858 C 207.776 315.732, 225.179 311.740, 219.989 305.487 C 218.609 303.824, 215.002 303.690, 210.500 305.135 M 392.250 306.110 C 391.563 306.820, 391 307.742, 391 308.161 C 391 310.097, 395.779 313.020, 400.570 314.014 C 407.466 315.446, 427.345 315.453, 442.741 314.030 C 467.061 311.781, 489.471 316.726, 506.994 328.210 L 510.488 330.500 508.246 327.349 C 505.684 323.747, 497.320 317.924, 490.528 315.012 C 479.076 310.103, 463.570 308.014, 438.289 307.973 C 423.144 307.948, 413.343 307.328, 398.500 305.452 C 395.015 305.012, 393.121 305.212, 392.250 306.110 M 215.500 315.297 C 211.051 317.243, 208.903 317.469, 196.015 317.348 L 181.531 317.212 186.515 319.139 C 202.955 325.494, 217.866 326.913, 224.095 322.715 C 228.099 320.017, 228.831 317.576, 226.433 314.926 C 224.218 312.479, 221.749 312.562, 215.500 315.297 M 385.596 315.306 C 382.674 317.443, 383.950 321.135, 388.500 323.707 C 395.494 327.659, 412.082 326.137, 427.500 320.127 L 432.500 318.179 417 318.339 C 402.844 318.486, 401.077 318.305, 396.623 316.250 C 391.060 313.684, 388.155 313.435, 385.596 315.306 M 134.290 328 C 127.304 329.831, 115.885 334.557, 121 333.501 C 129.754 331.693, 144.362 330.850, 149.933 331.831 C 161.594 333.885, 167.421 338.788, 164.865 344.397 C 163.266 347.906, 161 348.568, 161 345.525 C 161 340.727, 153.008 338.123, 149.655 341.829 C 146.820 344.962, 147.555 349.402, 151.479 352.847 C 158.133 358.690, 166.730 357.772, 171.003 350.763 C 176.463 341.809, 170.097 331.482, 156.657 327.491 C 150.047 325.528, 143.120 325.686, 134.290 328 M 464 327.628 C 453.365 329.675, 445.092 335.160, 442.978 341.566 C 439.716 351.450, 451.329 360.814, 461.552 356.543 C 466.886 354.314, 468.852 352.306, 469.599 348.323 C 470.460 343.736, 468.001 341, 463.019 341 C 458.986 341, 455 344.216, 455 347.469 C 455 349.247, 454.931 349.248, 453 347.500 C 450.542 345.275, 450.406 340.737, 452.729 338.414 C 456.940 334.203, 463.010 332.605, 475 332.552 C 481.325 332.523, 489.200 332.833, 492.500 333.241 C 499.960 334.162, 498.139 332.882, 487.938 330.035 C 480.414 327.935, 468.585 326.746, 464 327.628 M 290.189 354.683 C 286.197 356.094, 285.993 356.335, 287.439 357.932 C 288.297 358.881, 289 359.960, 289 360.329 C 289 360.698, 284.500 361, 279 361 L 269 361 269 365.500 L 269 370 286.500 370 C 303.333 370, 304 370.076, 304 372 C 304 373.914, 303.333 374, 288.500 374 L 273 374 273 378.500 L 273 383 288.500 383 C 303.278 383, 304 383.092, 304 384.979 C 304 386.875, 303.172 386.969, 284.250 387.229 L 264.500 387.500 264.193 391.750 L 263.885 396 280.693 396.147 C 293.316 396.257, 296.006 396.479, 291.500 397.038 C 288.200 397.448, 281.563 397.832, 276.750 397.891 C 271.938 397.951, 268 398.210, 268 398.466 C 268 398.722, 268.758 400.522, 269.685 402.466 L 271.370 406 278.685 406 C 284.521 406, 286 406.303, 286 407.500 C 286 408.743, 284.104 409, 274.940 409 L 263.879 409 264.190 412.750 L 264.500 416.500 275.250 416.784 C 285.790 417.062, 286 417.114, 286 419.420 C 286 421.981, 285.387 422.148, 270.750 423.575 C 267.038 423.937, 264 424.423, 264 424.656 C 264 424.889, 264.905 426.854, 266.012 429.023 L 268.024 432.967 274.262 432.284 C 283.261 431.299, 285.256 431.360, 285.697 432.634 C 285.913 433.258, 285.329 434.528, 284.399 435.458 C 283.060 436.798, 281.703 437.009, 277.855 436.480 C 272.428 435.734, 272.300 435.930, 274.158 442.134 L 275.317 446 282.735 446 C 289.601 446, 290.372 445.782, 293.077 443.077 C 295.530 440.624, 296 439.348, 296 435.144 C 296 429.533, 295.920 429.592, 305 428.457 C 312.700 427.495, 314 426.613, 314 422.350 L 314 418.770 308.250 419.438 C 305.087 419.805, 301.038 420.357, 299.250 420.664 C 296.433 421.148, 296 420.941, 296 419.111 C 296 417.098, 296.484 417, 306.406 417 L 316.812 417 318.300 421.250 C 319.119 423.587, 320.091 426.241, 320.461 427.146 C 321.002 428.470, 319.896 429.199, 314.817 430.868 C 311.343 432.010, 306.587 433.240, 304.250 433.600 C 301.913 433.961, 300 434.666, 300 435.168 C 300 435.669, 300.912 437.867, 302.027 440.052 C 304.341 444.588, 304.340 444.588, 316.500 440.312 C 320.350 438.958, 324.288 437.606, 325.252 437.308 C 326.277 436.991, 328.454 437.871, 330.496 439.429 C 338.038 445.182, 347.243 447.546, 352.062 444.967 C 354.412 443.709, 357.589 437.706, 358.514 432.778 C 359.158 429.342, 358.977 429.011, 355.117 426.574 C 352.875 425.158, 350.639 424, 350.150 424 C 349.661 424, 349.027 426.064, 348.743 428.587 C 348.459 431.110, 347.758 433.642, 347.186 434.214 C 345.935 435.465, 342.248 434.664, 339.500 432.544 C 337.533 431.026, 337.550 430.963, 340.499 428.750 C 342.148 427.513, 344.843 425.304, 346.487 423.842 C 349.441 421.216, 349.454 421.160, 347.584 419.092 L 345.690 417 350.845 417 L 356 417 356 413 L 356 409 349.932 409 L 343.864 409 345.932 406.096 C 347.069 404.498, 348 402.966, 348 402.690 C 348 402.414, 345.898 400.796, 343.329 399.094 L 338.657 396 347.329 396 L 356 396 356 391.500 L 356 387 336 387 C 316.667 387, 316 386.933, 316 385 C 316 383.086, 316.667 383, 331.557 383 L 347.115 383 346.807 378.750 L 346.500 374.500 331.250 374.224 C 316.827 373.963, 316 373.841, 316 371.974 C 316 370.084, 316.744 370, 333.500 370 L 351 370 351 365.500 L 351 361 341.477 361 L 331.954 361 333.528 358.597 C 335.092 356.210, 335.069 356.184, 329.875 354.459 L 324.648 352.722 321.074 356.877 L 317.500 361.031 310 360.989 L 302.500 360.946 300.049 356.973 C 297.364 352.620, 296.553 352.432, 290.189 354.683 M 310.474 398.950 C 311.313 400.573, 312 402.108, 312 402.362 C 312 402.616, 310.200 403.089, 308 403.412 C 305.800 403.735, 302.200 404.265, 300 404.588 C 296.933 405.039, 296 405.622, 296 407.088 C 296 408.837, 296.813 409, 305.556 409 L 315.113 409 314.806 403.250 L 314.500 397.500 319.750 397.198 L 325 396.895 325.015 401.698 C 325.038 408.697, 325.580 409.146, 333.590 408.799 L 340.500 408.500 334.752 405.500 C 331.591 403.850, 329.004 402.232, 329.002 401.905 C 329.001 401.578, 329.900 400.495, 331 399.500 C 332.100 398.505, 333 397.310, 333 396.845 C 333 396.380, 327.588 396, 320.974 396 L 308.949 396 310.474 398.950 M 289.184 472.076 C 287.266 475.148, 286.547 483.284, 287.960 485.925 C 288.621 487.160, 290.746 488.832, 292.684 489.641 C 295.939 491.001, 296.088 491.245, 294.642 492.843 C 291.660 496.138, 289.886 502.243, 289.409 510.852 C 289.146 515.608, 288.764 521.188, 288.560 523.250 C 288.244 526.459, 288.479 527, 290.195 527 C 291.298 527, 293.730 525.470, 295.600 523.600 L 299 520.200 299 507.823 C 299 490.844, 298.871 491, 312.931 491 L 323.749 491 321.625 495.250 C 319.784 498.932, 319.489 501.337, 319.416 513.250 C 319.357 522.723, 319.677 527, 320.443 527 C 322.402 527, 325.966 523.967, 327.506 520.989 C 329.405 517.316, 329.390 513.804, 327.437 505.383 C 325.622 497.559, 325.984 495.385, 330.032 489.796 C 333.705 484.726, 334.136 478.136, 331 475 C 329.153 473.153, 327.667 473, 311.622 473 C 297.396 473, 294.019 472.728, 293 471.500 C 291.349 469.511, 290.728 469.604, 289.184 472.076" stroke="none" fill="#ec0e2e" fill-rule="evenodd"/><path d="M 103 94.930 C 92.023 98.303, 83.384 107.435, 80.492 118.726 C 79.151 123.957, 79.003 148.586, 79.236 326.580 L 79.500 528.500 82.279 534.160 C 85.922 541.577, 91.349 547.043, 98.612 550.609 L 104.500 553.500 309.552 553.500 L 514.604 553.500 521.352 550.075 C 528.854 546.267, 532.665 542.466, 536.752 534.713 L 539.500 529.500 539.500 324 L 539.500 118.500 536.906 113 C 533.770 106.353, 527.548 99.942, 521.195 96.813 L 516.500 94.500 311 94.331 C 197.975 94.238, 104.375 94.508, 103 94.930 M 269.239 126.653 C 255.751 133.302, 254.622 149.984, 265.876 176.332 C 273.502 194.185, 276.989 210.622, 276.996 228.750 C 276.998 234.387, 277.405 239, 277.900 239 C 279.866 239, 281.265 228.626, 280.718 218.104 C 280.058 205.420, 276.861 192.321, 270.609 176.691 C 265.206 163.181, 264.011 158.891, 264.011 153 C 264.011 146.151, 265.746 141.320, 269.586 137.481 C 272.479 134.588, 273.791 134, 277.359 134 C 284.553 134, 289.575 141.472, 283.501 143.138 C 279.838 144.142, 278 146.484, 278 150.144 C 278 157.580, 283.331 161.362, 290.379 158.925 C 295.793 157.053, 298.329 152.460, 297.614 145.818 C 296.022 131.019, 280.986 120.863, 269.239 126.653 M 322.500 128.101 C 313.581 132.837, 309.060 139.719, 309.022 148.615 C 308.995 155.004, 311.502 158.519, 317.175 160.047 C 324.262 161.956, 330 158.032, 330 151.277 C 330 147.338, 327.019 144, 323.500 144 C 318.242 144, 322.254 135.799, 328.081 134.634 C 332.752 133.700, 339.149 136.891, 342.090 141.623 C 344.159 144.951, 344.493 146.703, 344.448 154 C 344.399 162.123, 344.122 163.151, 338.199 177.165 C 330.424 195.564, 326.770 210.089, 326.667 223 C 326.596 231.933, 328.149 240, 329.940 240 C 330.371 240, 330.986 233.588, 331.305 225.750 C 331.999 208.724, 334.278 197.918, 340.045 184.313 C 349.367 162.318, 351.104 156.287, 350.789 147 C 350.467 137.527, 348.946 134.348, 342.310 129.287 C 337.427 125.563, 328.307 125.017, 322.500 128.101 M 270.808 139.750 C 265.085 145.882, 264.830 153.981, 269.924 167.790 C 271.488 172.030, 274.385 179.875, 276.360 185.222 C 278.335 190.569, 280.709 199.088, 281.636 204.154 C 284.153 217.911, 285.251 212.544, 284.737 189 C 284.289 168.485, 283.558 164.488, 279.428 160 C 274.058 154.164, 273.937 146.913, 279.138 142.538 C 281.662 140.414, 281.989 139.692, 280.981 138.477 C 278.925 136, 273.697 136.654, 270.808 139.750 M 234.459 139.840 C 227.270 143.176, 223.019 150.290, 223.006 159.007 C 222.996 165.163, 224.742 169.021, 229.392 173.114 C 244.196 186.145, 253.553 204.469, 254.705 222.684 C 255.952 242.402, 248.879 260.385, 232.754 278.492 L 227.500 284.391 232.623 281.606 C 243.287 275.808, 252.834 263.220, 257.733 248.500 C 260.160 241.208, 260.400 239.084, 260.443 224.500 C 260.500 205.408, 259.217 199.372, 251.938 184.500 C 246.263 172.906, 245.890 172.402, 240.269 168.747 C 235.901 165.908, 234.159 162.378, 235.583 159.252 C 236.250 157.786, 236.440 157.929, 236.745 160.127 C 237.317 164.257, 241.424 167.455, 246.154 167.455 C 249.563 167.455, 250.746 166.854, 253.712 163.617 C 256.995 160.034, 257.200 159.425, 256.788 154.462 C 255.841 143.033, 244.119 135.357, 234.459 139.840 M 326.617 139.291 C 324.967 140.498, 325.008 140.667, 327.256 141.869 C 333.749 145.344, 334.468 153.346, 328.908 160.264 C 324.626 165.592, 323.033 171.455, 322.322 184.500 C 321.681 196.262, 322.685 215, 323.956 215 C 324.379 215, 325.005 212.637, 325.347 209.750 C 326.356 201.234, 328.721 193.387, 334.916 178 C 341.948 160.538, 343.556 153.780, 342.031 148.113 C 340.340 141.834, 336.576 138, 332.102 138 C 330.056 138, 327.588 138.581, 326.617 139.291 M 365.137 140.319 C 356.714 143.493, 351.112 151.451, 352.413 158.390 C 353.135 162.235, 357.459 166.705, 361.575 167.860 C 367.624 169.557, 373.989 165.840, 374.015 160.595 C 374.027 158.229, 374.259 157.853, 375 159 C 376.893 161.930, 376.036 164.775, 372.393 167.652 C 361.803 176.014, 355.362 186.425, 350.834 202.500 C 347.855 213.076, 347.558 235.023, 350.260 245 C 354.355 260.120, 364.114 274.128, 375.133 280.701 C 382.970 285.376, 385.230 285.824, 380.834 281.830 C 370.516 272.457, 361.800 259.293, 357.376 246.399 C 355.102 239.773, 354.665 236.808, 354.665 228 C 354.665 211.292, 359.764 198.568, 372.315 183.952 C 375.835 179.853, 380.575 175.150, 382.848 173.500 C 387.403 170.194, 388.985 166.452, 388.994 158.962 C 389.010 146.294, 376.084 136.193, 365.137 140.319 M 174.618 161.112 C 163.299 163.770, 150.895 174.319, 147.071 184.541 C 141.629 199.085, 147.136 210.563, 161.233 214.056 C 167.206 215.536, 172.087 214.639, 176.006 211.341 C 180.296 207.732, 182 203.931, 182 197.973 C 182 193.640, 181.547 192.394, 179.077 189.923 C 177.359 188.205, 175.092 187, 173.577 187 C 170.277 187, 167 190.268, 167 193.559 C 167 195.010, 166.567 195.851, 166 195.500 C 163.938 194.226, 164.950 188.955, 167.750 186.382 C 171.737 182.718, 171.588 182.873, 175.518 178.308 C 184.676 167.673, 203.657 167.886, 219.700 178.805 C 236.375 190.154, 248.975 211.331, 248.972 228 C 248.968 244.312, 240.992 261.502, 226.117 277.257 C 217.852 286.012, 220.750 285.251, 229.667 276.326 C 238.719 267.264, 244.107 259.550, 248.353 249.571 C 251 243.350, 251.414 241.054, 251.794 230.467 C 252.117 221.496, 251.814 216.789, 250.603 211.967 C 247.078 197.927, 237.484 183.443, 226 174.825 C 219.636 170.049, 204.627 162.754, 197.807 161.123 C 192.325 159.811, 180.183 159.806, 174.618 161.112 M 414.500 162.428 C 395.317 167.255, 377.562 179.416, 367.337 194.732 C 354.765 213.563, 354.132 238.278, 365.718 257.908 C 369.670 264.603, 381.991 278.449, 387.371 282.241 C 390.117 284.177, 389.950 283.808, 386 279.223 C 374.205 265.532, 371.564 261.871, 367.437 253.500 C 357.718 233.786, 359.257 217.006, 372.485 198.469 C 384.977 180.963, 406.220 169.588, 423.123 171.355 C 431.657 172.247, 434.625 173.841, 443.253 182.167 C 449.663 188.352, 451 190.180, 451 192.762 C 451 194.478, 450.550 196.160, 450 196.500 C 449.418 196.860, 449 195.863, 449 194.116 C 449 187.867, 440.946 185.900, 435.923 190.923 C 433.526 193.320, 433 194.687, 433 198.522 C 433 214.630, 451.395 221.326, 465.691 210.422 C 476.175 202.426, 475.132 187.538, 463.192 174.774 C 454.268 165.234, 443.457 160.948, 428.661 161.085 C 423.622 161.132, 417.250 161.736, 414.500 162.428 M 286.298 163.794 C 285.372 164.384, 285.455 166.611, 286.662 173.529 C 289.769 191.328, 287.343 221.403, 281.024 243.434 C 279.931 247.248, 279.220 250.553, 279.446 250.779 C 279.671 251.004, 281.090 249.234, 282.599 246.844 C 292.268 231.532, 297.350 204.427, 295.115 180.096 C 293.610 163.717, 293.400 162.996, 290.133 163.015 C 288.685 163.024, 286.959 163.374, 286.298 163.794 M 314.082 164.882 C 312.691 167.537, 311 182.673, 311.006 192.409 C 311.014 204.687, 313.325 219.191, 317.041 230.283 C 320.151 239.566, 324.784 248.746, 327.492 250.993 C 328.780 252.062, 328.773 251.593, 327.441 247.360 C 324.562 238.213, 321.076 221.674, 319.901 211.585 C 318.534 199.856, 319.267 179.296, 321.359 170.675 C 322.870 164.446, 322.926 164.553, 317.715 163.713 C 315.825 163.408, 314.657 163.784, 314.082 164.882 M 250.166 170.062 C 248.883 170.577, 247.987 171.336, 248.175 171.749 C 248.364 172.162, 250.373 176.100, 252.640 180.500 C 261.531 197.755, 265.372 217.403, 263.136 234.197 C 258.197 271.291, 237.779 289.931, 191 300.053 C 185.225 301.302, 180.073 302.701, 179.550 303.162 C 177.634 304.852, 198.213 303.994, 208.145 301.970 C 237.012 296.088, 256.855 282.672, 266.492 262.522 C 272.668 249.610, 273.511 245.167, 273.429 226 C 273.370 212.337, 272.984 208.124, 271.185 201.500 C 268.499 191.613, 262.334 178.893, 257.491 173.250 C 253.547 168.654, 253.611 168.682, 250.166 170.062 M 350.766 175.723 C 344.866 182.820, 339.673 193.208, 336.851 203.558 C 333.949 214.199, 333.639 238.136, 336.274 248 C 338.771 257.347, 345.241 269.939, 350.620 275.923 C 365.614 292.599, 392.728 303.442, 422.500 304.668 C 439.705 305.376, 439.462 304.249, 421.613 300.551 C 404.031 296.908, 394.282 293.702, 382.575 287.713 C 360.905 276.626, 349.127 259.699, 345.825 234.900 C 343.595 218.151, 348.193 196.887, 357.623 180.339 C 360.030 176.115, 362 172.338, 362 171.946 C 362 171.250, 358.493 170.027, 356.500 170.028 C 355.950 170.028, 353.370 172.591, 350.766 175.723 M 186.885 174.380 C 182.342 176.003, 177.313 179.546, 175.958 182.079 C 175.092 183.696, 175.325 184.173, 177.359 184.946 C 178.700 185.456, 180.525 186.912, 181.414 188.181 L 183.031 190.489 188.265 187.494 C 193.018 184.776, 194.329 184.501, 202.500 184.507 C 210.039 184.513, 212.231 184.900, 216 186.892 C 226.789 192.591, 235.121 202.392, 239.882 214.985 C 241.939 220.425, 242.342 223.233, 242.322 232 C 242.299 241.664, 241.519 245.980, 238.450 253.414 C 237.927 254.681, 238.021 255.105, 238.727 254.669 C 239.314 254.306, 241.078 250.520, 242.647 246.255 C 245.108 239.565, 245.490 237.126, 245.429 228.500 C 245.366 219.708, 244.974 217.534, 242.181 210.500 C 232.438 185.961, 204.869 167.953, 186.885 174.380 M 409 175.435 C 393.401 179.791, 376.495 193.806, 369.678 208.035 C 362.752 222.490, 362.449 236.949, 368.792 250.250 C 372.657 258.353, 375.852 262.501, 372.840 255.505 C 363.358 233.481, 367.934 211.069, 385.070 195.597 C 388.056 192.901, 392.975 189.526, 396 188.097 C 400.722 185.868, 402.844 185.501, 411 185.505 C 419.460 185.509, 421.082 185.815, 425.813 188.303 L 431.125 191.097 434.597 188.049 C 436.507 186.372, 438.813 185, 439.722 185 C 442.503 185, 436.130 179.045, 430.500 176.383 C 424.820 173.698, 416.530 173.333, 409 175.435 M 195.826 187.979 C 194.356 188.423, 191.318 189.817, 189.076 191.077 C 185.321 193.188, 185 193.698, 185 197.559 C 185 199.864, 184.710 203.269, 184.356 205.125 L 183.712 208.500 186.106 206.343 C 193.852 199.362, 204.572 197.826, 214.340 202.298 C 228.673 208.860, 237.498 226.533, 234.854 243.382 C 233.736 250.509, 234.406 251.660, 236.613 246.404 C 241.456 234.866, 240.719 222.929, 234.366 210.048 C 226.109 193.305, 209.565 183.832, 195.826 187.979 M 397.500 190.790 C 388.017 195.362, 380.725 202.732, 375.748 212.775 C 371.599 221.145, 371.500 221.578, 371.500 231.422 C 371.500 239.887, 371.880 242.340, 373.873 246.750 C 375.178 249.637, 376.667 252, 377.182 252 C 377.697 252, 377.884 251.621, 377.598 251.158 C 377.311 250.695, 376.657 247.657, 376.143 244.408 C 373.030 224.734, 385.741 205.204, 404.377 201.028 C 411.271 199.483, 418.130 200.706, 424.679 204.650 C 427.770 206.511, 430.388 207.914, 430.497 207.767 C 430.606 207.620, 430.487 204.470, 430.232 200.767 L 429.769 194.034 424.135 191.270 C 419.821 189.153, 416.741 188.434, 411 188.201 C 404.421 187.935, 402.764 188.253, 397.500 190.790 M 192.946 205.750 L 187.500 208.500 194.516 209.047 C 203.649 209.760, 209.354 212.594, 216.287 219.862 C 226.179 230.233, 228.321 244.433, 222.415 260.500 C 220.679 265.223, 226.890 257.642, 229.649 251.670 C 232.090 246.387, 232.497 244.269, 232.479 236.937 C 232.461 229.326, 232.098 227.642, 229.220 221.795 C 221.032 205.163, 206.681 198.815, 192.946 205.750 M 405 203.918 C 395.426 205.917, 386.562 213.483, 381.651 223.849 C 377.447 232.722, 377.257 242.638, 381.132 251 C 383.621 256.372, 388.834 263.499, 389.666 262.667 C 389.896 262.437, 389.277 260.281, 388.292 257.875 C 385.881 251.989, 385.903 239.312, 388.335 232.280 C 390.575 225.803, 396.964 218.592, 404.444 214.095 C 409.354 211.144, 411.266 210.611, 418.804 210.095 L 427.500 209.500 421.996 206.879 C 415.657 203.861, 409.997 202.875, 405 203.918 M 185.821 212.357 C 176.313 214.994, 170.986 221.577, 171.016 230.651 C 171.049 240.279, 177.561 246.995, 186.868 246.998 C 190.609 247, 191.792 246.443, 195.118 243.118 C 198.580 239.655, 199 238.701, 199 234.292 C 199 230.418, 198.499 228.878, 196.686 227.174 C 193.081 223.788, 189 224.895, 189 229.259 C 189 230.281, 188.550 230.840, 188 230.500 C 185.965 229.242, 186.914 224.103, 189.493 222.413 C 192.859 220.207, 196.266 221.210, 200.960 225.788 C 203.053 227.830, 206.281 230.400, 208.133 231.500 C 210.240 232.752, 212.553 235.558, 214.314 239 C 216.901 244.055, 217.103 245.248, 216.814 253.751 C 216.641 258.839, 216.805 263.001, 217.178 263.001 C 218.951 262.999, 222.140 251.170, 222.158 244.527 C 222.216 223.546, 203.910 207.339, 185.821 212.357 M 413.500 213.336 C 407.140 215.447, 403.795 217.533, 399.334 222.170 C 389.722 232.161, 387.271 243.306, 391.638 257.173 C 394.371 265.850, 395.580 264.927, 395.538 254.197 C 395.506 246.129, 395.862 243.828, 397.653 240.500 C 400.165 235.831, 403.162 232.911, 407.903 230.512 C 409.774 229.566, 412.389 227.503, 413.713 225.929 C 416.451 222.676, 421.744 221.258, 424.883 222.937 C 427.586 224.384, 428.644 228.519, 426.862 230.669 C 425.640 232.144, 425.448 232.015, 424.994 229.406 C 423.989 223.644, 416.853 225.421, 414.906 231.919 C 413.910 235.243, 414.014 236.359, 415.621 239.639 C 420.718 250.041, 435.099 250.691, 442.115 240.838 C 445.491 236.098, 445.801 227.722, 442.791 222.604 C 438.075 214.586, 423.566 209.995, 413.500 213.336 M 202.965 234.750 C 202.945 236.262, 202.313 238.614, 201.559 239.975 C 200.357 242.146, 200.427 242.916, 202.130 246.255 C 207.542 256.864, 205.738 269.585, 197.237 280.750 C 193.364 285.837, 196.079 284.566, 202.328 278.368 C 216.080 264.725, 218.750 246.300, 208.544 235.478 C 204.589 231.285, 203.012 231.079, 202.965 234.750 M 404.743 236.204 C 399.280 241.668, 397.561 246.783, 398.255 255.519 C 399.055 265.596, 407.107 278.153, 416.166 283.450 L 419.500 285.399 416.596 281.950 C 408.082 271.839, 405.666 258.884, 410.527 249.419 C 413.021 244.563, 413.033 244.430, 411.440 239 C 410.553 235.975, 409.723 233.069, 409.595 232.543 C 409.467 232.016, 407.284 233.664, 404.743 236.204 M 150.750 238.689 C 148.102 239.381, 148.655 241, 151.540 241 C 161.808 241, 170.963 255.147, 168.087 266.570 C 165.471 276.957, 160.474 281.449, 138.615 293.061 C 126.249 299.630, 115 307.707, 115 310.016 C 115 310.473, 118.037 309.101, 121.750 306.967 C 125.596 304.756, 133.232 301.744, 139.500 299.966 C 166.837 292.209, 180.697 275.580, 176.033 256.136 C 173.137 244.066, 161.336 235.923, 150.750 238.689 M 451.936 241.750 C 445.105 245.214, 440.534 251.111, 439.018 258.414 C 436.980 268.232, 440.151 277.154, 448.652 285.521 C 455.718 292.474, 465.422 297.384, 479.147 300.950 C 485.391 302.572, 493.538 305.486, 497.250 307.424 C 500.962 309.363, 504 310.549, 504 310.060 C 504 307.841, 492.261 300.238, 476.687 292.371 C 457.026 282.439, 451.426 277.810, 448.532 269.095 C 444.854 258.023, 450.925 245.709, 461.465 242.862 C 468.610 240.931, 468.712 240.873, 466.500 239.963 C 462.606 238.362, 457.344 239.007, 451.936 241.750 M 144.077 245.589 C 141.424 247.821, 141 248.843, 141 253 C 141 257.157, 141.424 258.179, 144.077 260.411 C 147.312 263.133, 150.845 263.688, 154.043 261.977 C 159.783 258.905, 157.742 251.059, 151.191 251.015 C 149.909 251.007, 149.157 250.555, 149.500 250 C 151.765 246.334, 160 251.869, 160 257.057 C 160 260.101, 155.137 265, 152.116 265 C 151.052 265, 149.693 266.569, 148.590 269.068 C 146.493 273.821, 141.414 277.821, 131.372 282.628 C 122.288 286.976, 118.942 291.428, 116.534 302.370 L 115.902 305.240 120.132 301.619 C 122.458 299.628, 131.016 294.590, 139.150 290.423 C 156.038 281.772, 162.639 275.933, 164.979 267.575 C 167.632 258.099, 163.995 248.264, 156.595 244.904 C 150.990 242.358, 147.703 242.538, 144.077 245.589 M 460.500 245.412 C 451.533 249.397, 447.539 261.285, 452.042 270.587 C 455.710 278.164, 462.688 283.493, 479.357 291.447 C 487.756 295.455, 496.234 300.144, 498.196 301.867 C 500.158 303.590, 502.092 305, 502.493 305 C 503.625 305, 502.039 297.994, 500.014 294.047 C 497.376 288.903, 494.480 286.601, 485.549 282.543 C 475.608 278.026, 471.518 274.936, 469.031 270.061 C 467.722 267.495, 466.162 266.009, 464.290 265.544 C 457.415 263.838, 454.987 257.451, 459.306 252.431 C 461.805 249.525, 466.295 248.824, 468.325 251.022 C 469.250 252.024, 469.125 252.162, 467.738 251.674 C 465.034 250.722, 461.273 252.926, 459.886 256.275 C 458.725 259.078, 458.839 259.464, 461.499 261.753 C 463.857 263.781, 465.078 264.119, 468.429 263.669 C 473.824 262.946, 477 259.313, 477 253.867 C 477 245.833, 468.896 241.680, 460.500 245.412 M 193.500 248.382 L 189.500 250.479 189.500 260.990 C 189.500 271.062, 189.357 271.763, 186.073 277.820 C 183.915 281.800, 180.061 286.533, 175.662 290.606 C 170.364 295.512, 169.374 296.808, 171.561 295.977 C 185.102 290.828, 197.243 280.299, 200.937 270.500 C 203.547 263.577, 203.407 254.622, 200.606 249.205 C 198.718 245.555, 198.860 245.571, 193.500 248.382 M 413.083 250.103 C 409.058 256.722, 409.658 267.302, 414.531 275.634 C 418.049 281.650, 425.617 288.007, 434.963 292.799 C 445.166 298.031, 447.667 298.177, 441.340 293.171 C 429.813 284.052, 424.500 274.691, 424.500 263.500 C 424.500 259.650, 424.846 255.262, 425.269 253.750 C 425.826 251.760, 425.677 251, 424.730 251 C 424.011 251, 421.658 250.100, 419.500 249 C 417.342 247.900, 415.441 247, 415.274 247 C 415.107 247, 414.121 248.397, 413.083 250.103 M 177.445 250.137 C 177.851 251.436, 178.419 256.377, 178.708 261.117 C 179.184 268.941, 178.985 270.283, 176.547 275.716 C 173.172 283.237, 164.743 291.742, 155.991 296.457 C 148.845 300.308, 149.706 300.984, 158.191 298.185 C 178.265 291.563, 190.303 274.419, 187.024 257.127 C 185.798 250.662, 185.413 250, 182.875 250 C 181.772 250, 179.932 249.499, 178.788 248.887 C 176.892 247.872, 176.773 247.983, 177.445 250.137 M 433.500 250.504 C 430.135 251.481, 429.288 252.288, 428.162 255.583 C 426.212 261.291, 427.204 270.853, 430.430 277.445 C 433.616 283.957, 441.861 291.806, 449.381 295.486 C 454.667 298.072, 465.050 301.283, 465.777 300.556 C 465.981 300.353, 462.870 298.464, 458.865 296.360 C 450.436 291.931, 442.157 284.010, 438.849 277.212 C 436.073 271.507, 435.220 260.859, 437.022 254.420 C 437.712 251.958, 438.101 249.807, 437.888 249.642 C 437.675 249.477, 435.700 249.865, 433.500 250.504 M 225.455 301.455 C 224.105 302.805, 223 304.379, 223 304.953 C 223 305.528, 224.800 307.852, 227 310.119 C 229.357 312.549, 231 315.204, 231 316.586 C 231 319.839, 225.628 325.638, 221.288 327.070 C 215.278 329.054, 203.053 327.589, 187.500 323.021 C 168.145 317.337, 161.135 316.356, 150.246 317.805 C 140.103 319.156, 128.231 322.910, 122.500 326.579 C 118.138 329.371, 118.565 329.350, 129.500 326.233 C 133.911 324.975, 139.340 324.521, 150 324.516 C 165.811 324.509, 171.294 325.463, 190.014 331.480 C 210.021 337.911, 220.082 338.338, 230.155 333.184 C 233.039 331.708, 236.759 328.787, 238.420 326.694 C 240.976 323.473, 241.492 321.857, 241.774 316.194 C 242.158 308.461, 240.260 304.349, 234.759 300.995 C 230.474 298.382, 228.426 298.483, 225.455 301.455 M 377.500 300.959 C 374.695 302.127, 370.327 306.972, 369.064 310.315 C 365.299 320.280, 373.457 332.852, 385.693 335.941 C 393.328 337.869, 406.645 337.233, 416.500 334.470 C 448.455 325.510, 448.171 325.560, 467 325.529 C 483.916 325.501, 487.675 325.975, 498.500 329.502 C 499.600 329.860, 498.700 328.986, 496.500 327.560 C 490.928 323.949, 478.472 320.285, 466.822 318.831 C 454.802 317.331, 446.161 318.372, 427.952 323.514 C 411.682 328.108, 404.117 329.363, 396.428 328.746 C 389.187 328.165, 383.736 325.324, 381.476 320.953 C 379.348 316.838, 379.524 316.284, 384.500 311.448 C 386.975 309.043, 389 306.669, 389 306.172 C 389 305.676, 388.067 304.084, 386.927 302.635 C 384.788 299.915, 381.438 299.320, 377.500 300.959 M 210.500 305.135 C 208.850 305.665, 194.900 306.512, 179.500 307.018 C 146.944 308.087, 139.078 309.274, 127.403 314.876 C 119.804 318.522, 108.939 327.272, 110.309 328.642 C 110.585 328.918, 113.441 327.380, 116.656 325.224 C 132.958 314.289, 150.484 311.309, 183.500 313.858 C 207.776 315.732, 225.179 311.740, 219.989 305.487 C 218.609 303.824, 215.002 303.690, 210.500 305.135 M 392.250 306.110 C 391.563 306.820, 391 307.742, 391 308.161 C 391 310.097, 395.779 313.020, 400.570 314.014 C 407.466 315.446, 427.345 315.453, 442.741 314.030 C 467.061 311.781, 489.471 316.726, 506.994 328.210 L 510.488 330.500 508.246 327.349 C 505.684 323.747, 497.320 317.924, 490.528 315.012 C 479.076 310.103, 463.570 308.014, 438.289 307.973 C 423.144 307.948, 413.343 307.328, 398.500 305.452 C 395.015 305.012, 393.121 305.212, 392.250 306.110 M 215.500 315.297 C 211.051 317.243, 208.903 317.469, 196.015 317.348 L 181.531 317.212 186.515 319.139 C 202.955 325.494, 217.866 326.913, 224.095 322.715 C 228.099 320.017, 228.831 317.576, 226.433 314.926 C 224.218 312.479, 221.749 312.562, 215.500 315.297 M 385.596 315.306 C 382.674 317.443, 383.950 321.135, 388.500 323.707 C 395.494 327.659, 412.082 326.137, 427.500 320.127 L 432.500 318.179 417 318.339 C 402.844 318.486, 401.077 318.305, 396.623 316.250 C 391.060 313.684, 388.155 313.435, 385.596 315.306 M 134.290 328 C 127.304 329.831, 115.885 334.557, 121 333.501 C 129.754 331.693, 144.362 330.850, 149.933 331.831 C 161.594 333.885, 167.421 338.788, 164.865 344.397 C 163.266 347.906, 161 348.568, 161 345.525 C 161 340.727, 153.008 338.123, 149.655 341.829 C 146.820 344.962, 147.555 349.402, 151.479 352.847 C 158.133 358.690, 166.730 357.772, 171.003 350.763 C 176.463 341.809, 170.097 331.482, 156.657 327.491 C 150.047 325.528, 143.120 325.686, 134.290 328 M 464 327.628 C 453.365 329.675, 445.092 335.160, 442.978 341.566 C 439.716 351.450, 451.329 360.814, 461.552 356.543 C 466.886 354.314, 468.852 352.306, 469.599 348.323 C 470.460 343.736, 468.001 341, 463.019 341 C 458.986 341, 455 344.216, 455 347.469 C 455 349.247, 454.931 349.248, 453 347.500 C 450.542 345.275, 450.406 340.737, 452.729 338.414 C 456.940 334.203, 463.010 332.605, 475 332.552 C 481.325 332.523, 489.200 332.833, 492.500 333.241 C 499.960 334.162, 498.139 332.882, 487.938 330.035 C 480.414 327.935, 468.585 326.746, 464 327.628 M 290.189 354.683 C 286.197 356.094, 285.993 356.335, 287.439 357.932 C 288.297 358.881, 289 359.960, 289 360.329 C 289 360.698, 284.500 361, 279 361 L 269 361 269 365.500 L 269 370 286.500 370 C 303.333 370, 304 370.076, 304 372 C 304 373.914, 303.333 374, 288.500 374 L 273 374 273 378.500 L 273 383 288.500 383 C 303.278 383, 304 383.092, 304 384.979 C 304 386.875, 303.172 386.969, 284.250 387.229 L 264.500 387.500 264.193 391.750 L 263.885 396 280.693 396.147 C 293.316 396.257, 296.006 396.479, 291.500 397.038 C 288.200 397.448, 281.563 397.832, 276.750 397.891 C 271.938 397.951, 268 398.210, 268 398.466 C 268 398.722, 268.758 400.522, 269.685 402.466 L 271.370 406 278.685 406 C 284.521 406, 286 406.303, 286 407.500 C 286 408.743, 284.104 409, 274.940 409 L 263.879 409 264.190 412.750 L 264.500 416.500 275.250 416.784 C 285.790 417.062, 286 417.114, 286 419.420 C 286 421.981, 285.387 422.148, 270.750 423.575 C 267.038 423.937, 264 424.423, 264 424.656 C 264 424.889, 264.905 426.854, 266.012 429.023 L 268.024 432.967 274.262 432.284 C 283.261 431.299, 285.256 431.360, 285.697 432.634 C 285.913 433.258, 285.329 434.528, 284.399 435.458 C 283.060 436.798, 281.703 437.009, 277.855 436.480 C 272.428 435.734, 272.300 435.930, 274.158 442.134 L 275.317 446 282.735 446 C 289.601 446, 290.372 445.782, 293.077 443.077 C 295.530 440.624, 296 439.348, 296 435.144 C 296 429.533, 295.920 429.592, 305 428.457 C 312.700 427.495, 314 426.613, 314 422.350 L 314 418.770 308.250 419.438 C 305.087 419.805, 301.038 420.357, 299.250 420.664 C 296.433 421.148, 296 420.941, 296 419.111 C 296 417.098, 296.484 417, 306.406 417 L 316.812 417 318.300 421.250 C 319.119 423.587, 320.091 426.241, 320.461 427.146 C 321.002 428.470, 319.896 429.199, 314.817 430.868 C 311.343 432.010, 306.587 433.240, 304.250 433.600 C 301.913 433.961, 300 434.666, 300 435.168 C 300 435.669, 300.912 437.867, 302.027 440.052 C 304.341 444.588, 304.340 444.588, 316.500 440.312 C 320.350 438.958, 324.288 437.606, 325.252 437.308 C 326.277 436.991, 328.454 437.871, 330.496 439.429 C 338.038 445.182, 347.243 447.546, 352.062 444.967 C 354.412 443.709, 357.589 437.706, 358.514 432.778 C 359.158 429.342, 358.977 429.011, 355.117 426.574 C 352.875 425.158, 350.639 424, 350.150 424 C 349.661 424, 349.027 426.064, 348.743 428.587 C 348.459 431.110, 347.758 433.642, 347.186 434.214 C 345.935 435.465, 342.248 434.664, 339.500 432.544 C 337.533 431.026, 337.550 430.963, 340.499 428.750 C 342.148 427.513, 344.843 425.304, 346.487 423.842 C 349.441 421.216, 349.454 421.160, 347.584 419.092 L 345.690 417 350.845 417 L 356 417 356 413 L 356 409 349.932 409 L 343.864 409 345.932 406.096 C 347.069 404.498, 348 402.966, 348 402.690 C 348 402.414, 345.898 400.796, 343.329 399.094 L 338.657 396 347.329 396 L 356 396 356 391.500 L 356 387 336 387 C 316.667 387, 316 386.933, 316 385 C 316 383.086, 316.667 383, 331.557 383 L 347.115 383 346.807 378.750 L 346.500 374.500 331.250 374.224 C 316.827 373.963, 316 373.841, 316 371.974 C 316 370.084, 316.744 370, 333.500 370 L 351 370 351 365.500 L 351 361 341.477 361 L 331.954 361 333.528 358.597 C 335.092 356.210, 335.069 356.184, 329.875 354.459 L 324.648 352.722 321.074 356.877 L 317.500 361.031 310 360.989 L 302.500 360.946 300.049 356.973 C 297.364 352.620, 296.553 352.432, 290.189 354.683 M 310.474 398.950 C 311.313 400.573, 312 402.108, 312 402.362 C 312 402.616, 310.200 403.089, 308 403.412 C 305.800 403.735, 302.200 404.265, 300 404.588 C 296.933 405.039, 296 405.622, 296 407.088 C 296 408.837, 296.813 409, 305.556 409 L 315.113 409 314.806 403.250 L 314.500 397.500 319.750 397.198 L 325 396.895 325.015 401.698 C 325.038 408.697, 325.580 409.146, 333.590 408.799 L 340.500 408.500 334.752 405.500 C 331.591 403.850, 329.004 402.232, 329.002 401.905 C 329.001 401.578, 329.900 400.495, 331 399.500 C 332.100 398.505, 333 397.310, 333 396.845 C 333 396.380, 327.588 396, 320.974 396 L 308.949 396 310.474 398.950 M 289.184 472.076 C 287.266 475.148, 286.547 483.284, 287.960 485.925 C 288.621 487.160, 290.746 488.832, 292.684 489.641 C 295.939 491.001, 296.088 491.245, 294.642 492.843 C 291.660 496.138, 289.886 502.243, 289.409 510.852 C 289.146 515.608, 288.764 521.188, 288.560 523.250 C 288.244 526.459, 288.479 527, 290.195 527 C 291.298 527, 293.730 525.470, 295.600 523.600 L 299 520.200 299 507.823 C 299 490.844, 298.871 491, 312.931 491 L 323.749 491 321.625 495.250 C 319.784 498.932, 319.489 501.337, 319.416 513.250 C 319.357 522.723, 319.677 527, 320.443 527 C 322.402 527, 325.966 523.967, 327.506 520.989 C 329.405 517.316, 329.390 513.804, 327.437 505.383 C 325.622 497.559, 325.984 495.385, 330.032 489.796 C 333.705 484.726, 334.136 478.136, 331 475 C 329.153 473.153, 327.667 473, 311.622 473 C 297.396 473, 294.019 472.728, 293 471.500 C 291.349 469.511, 290.728 469.604, 289.184 472.076" stroke="none" fill="#f3efe8" fill-rule="evenodd"/></svg>